<?xml version="1.0" encoding="UTF-8"?>
<svg xmlns="http://www.w3.org/2000/svg" xmlns:xlink="http://www.w3.org/1999/xlink" width="198mm" height="213.6mm" viewBox="0 0 198 213.6">
<path fill="none" stroke-width="2" stroke-linecap="round" stroke-linejoin="miter" stroke="rgb(0%, 0%, 0%)" stroke-opacity="1" stroke-miterlimit="10" d="M 11 12 L 11 201.601562 "/>
<path fill="none" stroke-width="1" stroke-linecap="round" stroke-linejoin="miter" stroke="rgb(0%, 0%, 0%)" stroke-opacity="1" stroke-miterlimit="10" d="M 33 12 L 33 201.601562 "/>
<path fill="none" stroke-width="1" stroke-linecap="round" stroke-linejoin="miter" stroke="rgb(0%, 0%, 0%)" stroke-opacity="1" stroke-miterlimit="10" d="M 55 12 L 55 201.601562 "/>
<path fill="none" stroke-width="1" stroke-linecap="round" stroke-linejoin="miter" stroke="rgb(0%, 0%, 0%)" stroke-opacity="1" stroke-miterlimit="10" d="M 77 12 L 77 201.601562 "/>
<path fill="none" stroke-width="1" stroke-linecap="round" stroke-linejoin="miter" stroke="rgb(0%, 0%, 0%)" stroke-opacity="1" stroke-miterlimit="10" d="M 99 12 L 99 201.601562 "/>
<path fill="none" stroke-width="1" stroke-linecap="round" stroke-linejoin="miter" stroke="rgb(0%, 0%, 0%)" stroke-opacity="1" stroke-miterlimit="10" d="M 121 12 L 121 201.601562 "/>
<path fill="none" stroke-width="1" stroke-linecap="round" stroke-linejoin="miter" stroke="rgb(0%, 0%, 0%)" stroke-opacity="1" stroke-miterlimit="10" d="M 143 12 L 143 201.601562 "/>
<path fill="none" stroke-width="1" stroke-linecap="round" stroke-linejoin="miter" stroke="rgb(0%, 0%, 0%)" stroke-opacity="1" stroke-miterlimit="10" d="M 165 12 L 165 201.601562 "/>
<path fill="none" stroke-width="2" stroke-linecap="round" stroke-linejoin="miter" stroke="rgb(0%, 0%, 0%)" stroke-opacity="1" stroke-miterlimit="10" d="M 187 12 L 187 201.601562 "/>
<path fill="none" stroke-width="2" stroke-linecap="round" stroke-linejoin="miter" stroke="rgb(0%, 0%, 0%)" stroke-opacity="1" stroke-miterlimit="10" d="M 11 12 L 187 12 "/>
<path fill="none" stroke-width="1" stroke-linecap="round" stroke-linejoin="miter" stroke="rgb(0%, 0%, 0%)" stroke-opacity="1" stroke-miterlimit="10" d="M 11 35.699219 L 187 35.699219 "/>
<path fill="none" stroke-width="1" stroke-linecap="round" stroke-linejoin="miter" stroke="rgb(0%, 0%, 0%)" stroke-opacity="1" stroke-miterlimit="10" d="M 11 59.398438 L 187 59.398438 "/>
<path fill="none" stroke-width="1" stroke-linecap="round" stroke-linejoin="miter" stroke="rgb(0%, 0%, 0%)" stroke-opacity="1" stroke-miterlimit="10" d="M 11 83.101562 L 187 83.101562 "/>
<path fill="none" stroke-width="1" stroke-linecap="round" stroke-linejoin="miter" stroke="rgb(0%, 0%, 0%)" stroke-opacity="1" stroke-miterlimit="10" d="M 11 106.800781 L 187 106.800781 "/>
<path fill="none" stroke-width="1" stroke-linecap="round" stroke-linejoin="miter" stroke="rgb(0%, 0%, 0%)" stroke-opacity="1" stroke-miterlimit="10" d="M 11 130.5 L 187 130.5 "/>
<path fill="none" stroke-width="1" stroke-linecap="round" stroke-linejoin="miter" stroke="rgb(0%, 0%, 0%)" stroke-opacity="1" stroke-miterlimit="10" d="M 11 154.199219 L 187 154.199219 "/>
<path fill="none" stroke-width="1" stroke-linecap="round" stroke-linejoin="miter" stroke="rgb(0%, 0%, 0%)" stroke-opacity="1" stroke-miterlimit="10" d="M 11 177.898438 L 187 177.898438 "/>
<path fill="none" stroke-width="2" stroke-linecap="round" stroke-linejoin="miter" stroke="rgb(0%, 0%, 0%)" stroke-opacity="1" stroke-miterlimit="10" d="M 11 201.601562 L 187 201.601562 "/>
<path fill="none" stroke-width="4" stroke-linecap="round" stroke-linejoin="miter" stroke="rgb(0%, 0%, 0%)" stroke-opacity="1" stroke-miterlimit="10" d="M 55 59.398438 L 55 59.398438 "/>
<path fill="none" stroke-width="4" stroke-linecap="round" stroke-linejoin="miter" stroke="rgb(0%, 0%, 0%)" stroke-opacity="1" stroke-miterlimit="10" d="M 55 154.199219 L 55 154.199219 "/>
<path fill="none" stroke-width="4" stroke-linecap="round" stroke-linejoin="miter" stroke="rgb(0%, 0%, 0%)" stroke-opacity="1" stroke-miterlimit="10" d="M 143 59.398438 L 143 59.398438 "/>
<path fill="none" stroke-width="4" stroke-linecap="round" stroke-linejoin="miter" stroke="rgb(0%, 0%, 0%)" stroke-opacity="1" stroke-miterlimit="10" d="M 143 154.199219 L 143 154.199219 "/>
<path fill="none" stroke-width="4" stroke-linecap="round" stroke-linejoin="miter" stroke="rgb(0%, 0%, 0%)" stroke-opacity="1" stroke-miterlimit="10" d="M 99 106.800781 L 99 106.800781 "/>
<path fill="none" stroke-width="4" stroke-linecap="round" stroke-linejoin="miter" stroke="rgb(0%, 0%, 0%)" stroke-opacity="1" stroke-miterlimit="10" d="M 99 59.398438 L 99 59.398438 "/>
<path fill="none" stroke-width="4" stroke-linecap="round" stroke-linejoin="miter" stroke="rgb(0%, 0%, 0%)" stroke-opacity="1" stroke-miterlimit="10" d="M 99 154.199219 L 99 154.199219 "/>
<path fill="none" stroke-width="4" stroke-linecap="round" stroke-linejoin="miter" stroke="rgb(0%, 0%, 0%)" stroke-opacity="1" stroke-miterlimit="10" d="M 55 106.800781 L 55 106.800781 "/>
<path fill="none" stroke-width="4" stroke-linecap="round" stroke-linejoin="miter" stroke="rgb(0%, 0%, 0%)" stroke-opacity="1" stroke-miterlimit="10" d="M 143 106.800781 L 143 106.800781 "/>
<path fill="none" stroke-width="2" stroke-linecap="round" stroke-linejoin="miter" stroke="rgb(0%, 0%, 0%)" stroke-opacity="1" stroke-miterlimit="10" d="M 1 8.332031 C 1 4.285156 4.285156 1 8.332031 1 L 189.667969 1 C 193.714844 1 197 4.285156 197 8.332031 L 197 205.265625 C 197 209.316406 193.714844 212.601562 189.667969 212.601562 L 8.332031 212.601562 C 4.285156 212.601562 1 209.316406 1 205.265625 Z M 1 8.332031 "/>
</svg>
